<svg width="346" height="195" viewBox="0 0 346 195" fill="none" xmlns="http://www.w3.org/2000/svg">
<path d="M213.59 1H314.078C331.309 1 345.284 13.9565 345.284 29.9312C345.284 45.906 331.309 58.8625 314.078 58.8625H309.798L304.179 65.5923L298.56 58.8625H213.59C196.359 58.8625 182.384 45.906 182.384 29.9312C182.384 13.9565 196.359 1 213.59 1Z" fill="white" stroke="white" stroke-miterlimit="10" stroke-linecap="round" stroke-linejoin="round"/>
<path d="M316.032 47.8287C326.693 47.8287 335.336 39.8157 335.336 29.9311C335.336 20.0466 326.693 12.0336 316.032 12.0336C305.37 12.0336 296.727 20.0466 296.727 29.9311C296.727 39.8157 305.37 47.8287 316.032 47.8287Z" fill="#E6EFFC"/>
<path d="M319.485 43.325C327.468 41.5679 332.403 34.1438 330.508 26.7428C328.612 19.3419 320.605 14.7666 312.622 16.5236C304.639 18.2807 299.704 25.7048 301.6 33.1057C303.495 40.5067 311.502 45.082 319.485 43.325Z" fill="#6FC248"/>
<path d="M331.96 42.3398C327.065 37.1416 319.758 37.2534 319.758 37.2534L312.547 37.1416C312.547 37.1416 306.12 37.9241 302.262 40.853C290.699 49.6285 292.628 65.0443 292.628 65.0443C292.628 65.0443 339.508 55.6316 339.568 55.3298C339.629 55.0391 335.24 45.8165 331.96 42.3398Z" fill="#141414"/>
<path d="M311.233 24.4535C309.774 29.9088 312.427 33.9892 314.693 34.3022C317.949 34.7605 319.758 33.2737 320.722 30.5796C321.144 29.3946 321.771 24.9007 320.421 23.5704C318.178 21.3905 312.475 19.8031 311.233 24.4535Z" fill="#B1B1B1"/>
<path d="M319.999 31.6751L320.071 36.6945C320.071 36.6945 320.927 39.3886 315.899 39.3886C310.871 39.3886 312.077 36.6945 312.077 36.6945L312.161 31.1385" fill="#B1B1B1"/>
<path d="M320.59 28.5785C320.867 28.299 321.458 28.2431 321.807 28.4779C322.109 28.6791 322.181 29.0145 322.205 29.3163C322.229 29.607 322.205 29.9088 322.085 30.1883C321.952 30.4678 321.711 30.7249 321.361 30.8367C321.012 30.9597 320.565 30.9261 320.3 30.7137" fill="#B1B1B1"/>
<path d="M319.746 33.6201C319.746 33.6201 318.576 34.8387 316.466 34.9505C313.741 35.0958 312.571 33.2289 312.571 33.2289" stroke="#D34F9B" stroke-width="0.5" stroke-miterlimit="10" stroke-linecap="round" stroke-linejoin="round"/>
<path d="M315.586 30.2443C315.586 30.2443 316.562 30.412 316.562 29.9201C316.562 29.4283 316.261 27.2372 316.261 27.2372" stroke="#D34F9B" stroke-width="0.5" stroke-miterlimit="10" stroke-linecap="round" stroke-linejoin="round"/>
<path d="M313.053 27.673C313.041 27.7065 313.017 27.74 313.017 27.7847C313.005 27.8183 313.005 27.863 312.993 27.8965C312.969 28.0083 312.933 28.1201 312.933 28.2319C312.933 28.2878 312.945 28.3437 312.969 28.3996C312.993 28.4555 313.017 28.5002 313.065 28.5449C313.102 28.5673 313.126 28.5896 313.162 28.612C313.222 28.6455 313.27 28.6567 313.343 28.6679C313.379 28.679 313.427 28.679 313.463 28.6679C313.524 28.6679 313.584 28.6455 313.644 28.612C313.68 28.5896 313.704 28.5673 313.741 28.5449C313.801 28.489 313.837 28.4219 313.861 28.3549C313.873 28.2766 313.885 28.2095 313.885 28.1313C313.885 28.0866 313.885 28.053 313.885 28.0083C313.885 27.9748 313.885 27.9301 313.885 27.8965C313.885 27.8295 313.861 27.7512 313.849 27.6841C313.837 27.6506 313.825 27.6282 313.813 27.5947C313.789 27.55 313.753 27.5165 313.704 27.4829C313.68 27.4606 313.644 27.4382 313.608 27.4382C313.56 27.4158 313.499 27.4047 313.451 27.4047C313.415 27.4047 313.379 27.4158 313.343 27.4158C313.307 27.427 313.282 27.4382 313.246 27.4494C313.198 27.4717 313.162 27.5053 313.126 27.55C313.089 27.5835 313.065 27.6282 313.053 27.673Z" fill="#00276F"/>
<path d="M318.214 27.6731C318.202 27.7402 318.19 27.8184 318.178 27.8855C318.178 27.9302 318.178 27.9638 318.178 28.0085C318.178 28.042 318.178 28.0867 318.178 28.1203C318.178 28.1426 318.178 28.1538 318.178 28.1762C318.178 28.232 318.19 28.2879 318.202 28.3438C318.214 28.3997 318.25 28.4556 318.287 28.4892C318.323 28.5339 318.359 28.5786 318.419 28.601C318.455 28.6121 318.492 28.6345 318.528 28.6457C318.588 28.668 318.648 28.668 318.721 28.6568C318.769 28.6568 318.805 28.6457 318.841 28.6233C318.902 28.601 318.95 28.5786 318.998 28.5339C319.082 28.4444 319.143 28.3438 319.143 28.2209C319.143 28.1091 319.107 27.9973 319.082 27.8855C319.07 27.852 319.07 27.8072 319.058 27.7737C319.046 27.7402 319.034 27.6955 319.022 27.6619C319.01 27.6284 318.998 27.606 318.986 27.5725C318.962 27.5278 318.926 27.4942 318.877 27.4607C318.853 27.4383 318.817 27.416 318.781 27.416C318.733 27.3936 318.672 27.3824 318.624 27.3824C318.588 27.3824 318.552 27.3936 318.516 27.3936C318.479 27.4048 318.455 27.416 318.419 27.4272C318.371 27.4495 318.335 27.4831 318.299 27.5278C318.262 27.5837 318.226 27.6284 318.214 27.6731Z" fill="#00276F"/>
<path d="M318.359 31.7646H314.271C314.271 31.7646 314.464 33.2962 316.333 33.2962C318.202 33.2962 318.359 31.7646 318.359 31.7646Z" fill="white"/>
<path d="M310.883 29.1038C311.824 27.8182 312.728 26.5438 312.583 24.7328C314.368 25.4147 316.707 25.4036 318.552 25.1017C319.721 24.9117 321.108 24.4981 322.048 23.7491C322.989 23.0001 323.351 20.5295 322.483 19.6911C321.554 18.7968 320.059 19.3445 318.938 19.9706C318.455 19.1098 317.563 18.5285 316.61 18.439C315.658 18.3496 314.681 18.7632 314.054 19.5234C313.885 19.7358 313.717 19.9817 313.475 20.0824C313.174 20.2053 312.848 20.0712 312.535 20.0041C310.835 19.6464 309.231 22.1616 308.93 23.9503C308.628 25.7277 309.279 27.5164 309.955 29.1821C310.063 29.4392 310.328 29.741 310.533 29.5621" fill="#00276F"/>
<path d="M321.277 22.7878C322.76 24.61 322.929 27.2706 321.687 29.2381C321.639 29.3052 321.59 29.3835 321.506 29.417C321.397 29.4505 321.277 29.3835 321.192 29.3164C320.807 29.0034 320.626 28.5227 320.565 28.0532C320.505 27.5836 320.541 27.1029 320.517 26.6334C320.457 25.4932 320.011 24.3864 319.239 23.4921" fill="#00276F"/>
<path d="M311.474 28.5785C311.197 28.299 310.606 28.2431 310.256 28.4779C309.955 28.6791 309.882 29.0145 309.858 29.3163C309.834 29.607 309.858 29.9088 309.979 30.1883C310.111 30.4678 310.353 30.7249 310.702 30.8367C311.052 30.9597 311.498 30.9261 311.763 30.7137" fill="#B1B1B1"/>
<path d="M282.306 79.5614H195.093" stroke="#E6EFFC" stroke-width="3" stroke-miterlimit="10" stroke-linecap="round" stroke-linejoin="round"/>
<path d="M259.035 89.4772H195.093" stroke="#E6EFFC" stroke-width="3" stroke-miterlimit="10" stroke-linecap="round" stroke-linejoin="round"/>
<path d="M282.306 89.4772H267.367" stroke="#E6EFFC" stroke-width="3" stroke-miterlimit="10" stroke-linecap="round" stroke-linejoin="round"/>
<path d="M221.559 99.3929H195.093" stroke="#E6EFFC" stroke-width="3" stroke-miterlimit="10" stroke-linecap="round" stroke-linejoin="round"/>
<path d="M282.306 99.3929H231.483" stroke="#E6EFFC" stroke-width="3" stroke-miterlimit="10" stroke-linecap="round" stroke-linejoin="round"/>
<path d="M250.233 109.309H195.093" stroke="#E6EFFC" stroke-width="3" stroke-miterlimit="10" stroke-linecap="round" stroke-linejoin="round"/>
<path d="M136.43 73.7848H33.0906C15.3713 73.7848 1 86.4596 1 102.087C1 117.715 15.3713 130.39 33.0906 130.39H42.3036L48.0818 136.973L53.8601 130.39H136.43C154.149 130.39 168.521 117.715 168.521 102.087C168.521 86.4596 154.162 73.7848 136.43 73.7848Z" fill="white" stroke="white" stroke-miterlimit="10" stroke-linecap="round" stroke-linejoin="round"/>
<path d="M31.0817 119.596C42.0456 119.596 50.9337 111.757 50.9337 102.087C50.9337 92.4174 42.0456 84.5786 31.0817 84.5786C20.1178 84.5786 11.2297 92.4174 11.2297 102.087C11.2297 111.757 20.1178 119.596 31.0817 119.596Z" fill="#E6EFFC"/>
<path d="M45.9594 105.2C47.8982 97.958 42.8137 90.7013 34.6028 88.9914C26.3919 87.2814 18.164 91.7657 16.2251 99.0073C14.2863 106.249 19.3708 113.506 27.5817 115.216C35.7926 116.925 44.0205 112.441 45.9594 105.2Z" fill="#6FC248"/>
<path d="M24.9936 94.2224C28.1183 91.7071 34.1446 91.0947 36.5378 94.1458C37.6042 95.5019 37.8274 97.3938 39.2409 98.4655C39.7121 98.8264 40.3073 99.067 40.6545 99.5263C41.2373 100.292 40.9521 101.342 40.5677 102.206C40.1833 103.07 39.7121 104.01 40.0097 104.907C40.2205 105.541 40.8033 106.099 40.6917 106.755C40.5553 107.641 39.3277 107.936 38.3605 107.991C37.567 108.045 36.7734 108.067 35.9798 108.024C34.7646 107.947 33.5618 107.685 32.3343 107.728C30.8463 107.783 29.4203 108.308 27.9571 108.57C26.3824 108.855 24.7456 108.844 23.1708 108.527C22.2284 108.341 21.1621 107.881 21.0629 107.007C21.0009 106.416 21.4349 105.858 21.4597 105.268C21.4969 104.262 20.3561 103.463 20.3561 102.457C20.3561 101.276 21.8069 100.587 22.4516 99.5701C23.022 98.6624 22.9104 97.536 23.2576 96.5408C23.5552 95.6659 24.1752 94.8785 24.9936 94.2224Z" fill="#00276F"/>
<path d="M14.7017 114.891C19.736 109.806 27.2503 109.916 27.2503 109.916L34.6653 109.806C34.6653 109.806 41.2744 110.572 45.2423 113.437C57.1337 122.022 55.1497 137.102 55.1497 137.102C55.1497 137.102 6.93948 127.894 6.87748 127.599C6.82788 127.304 11.3414 118.292 14.7017 114.891Z" fill="#6FC248"/>
<path d="M35.5333 97.3938C37.0337 102.731 34.3057 106.722 31.9746 107.028C28.6266 107.477 26.7667 106.022 25.7747 103.387C25.3407 102.228 24.6959 97.8313 26.0847 96.5299C28.3911 94.3974 34.2561 92.8445 35.5333 97.3938Z" fill="#CDCDCD"/>
<path d="M27.6471 104.535L27.3123 109.445C27.3123 109.445 26.5311 112.081 31.1067 112.081C35.6822 112.081 34.5786 109.445 34.5786 109.445L33.8347 104.01" fill="#CDCDCD"/>
<path d="M25.9981 101.418C25.7129 101.145 25.1053 101.09 24.7457 101.32C24.4357 101.517 24.3613 101.845 24.3365 102.14C24.3117 102.424 24.3365 102.72 24.4605 102.993C24.5969 103.267 24.8449 103.518 25.2045 103.627C25.5641 103.748 26.0229 103.715 26.2957 103.507" fill="#B1B1B1"/>
<path d="M35.3349 101.418C35.6201 101.145 36.2277 101.09 36.5873 101.32C36.8973 101.517 36.9717 101.845 36.9965 102.14C37.0213 102.424 36.9965 102.72 36.8725 102.993C36.7361 103.267 36.4881 103.518 36.1285 103.627C35.7689 103.737 35.3101 103.715 35.0374 103.507" fill="#B1B1B1"/>
<path d="M24.1876 100.729C27.0395 100.193 29.6434 98.7279 31.4042 96.672C32.917 98.3014 34.9009 99.5809 37.1081 100.346C37.2941 99.0341 37.4553 97.6343 36.8105 96.4314C36.3641 95.6002 35.5705 94.966 34.7893 94.3645C34.1197 93.8505 33.4254 93.3256 32.5946 93.0522C30.995 92.5163 29.1475 92.9866 27.7463 93.8396C25.7499 95.0425 24.386 97.0219 24.0884 99.1435" fill="#00276F"/>
<path d="M32.2101 92.7897C32.0613 92.8663 31.8753 92.746 31.7513 92.6257C31.2925 92.1664 30.8089 91.5759 31.0197 90.9853C31.1189 90.7228 31.3545 90.5041 31.6149 90.3401C32.2349 89.9573 33.0781 89.837 33.7725 90.0995C34.4669 90.362 34.9628 91.04 34.8512 91.6962C34.752 92.3523 33.9957 92.91 33.2517 92.8116" fill="#00276F"/>
<path d="M27.8083 106.361C27.8083 106.361 28.7755 107.553 30.5239 107.663C32.7683 107.805 33.7478 105.979 33.7478 105.979" stroke="#D34F9B" stroke-width="0.5" stroke-miterlimit="10" stroke-linecap="round" stroke-linejoin="round"/>
<path d="M31.0942 104.065C31.0942 104.065 30.0897 104.251 30.0897 103.704C30.0897 103.157 30.3997 100.729 30.3997 100.729" stroke="#D34F9B" stroke-width="0.5" stroke-miterlimit="10" stroke-linecap="round" stroke-linejoin="round"/>
<path d="M32.8797 101.156C32.8673 101.221 32.8549 101.298 32.8425 101.364C32.8425 101.407 32.8425 101.44 32.8425 101.484C32.8425 101.517 32.8425 101.56 32.8425 101.593C32.8425 101.615 32.8425 101.626 32.8425 101.648C32.8425 101.703 32.8549 101.757 32.8673 101.812C32.8797 101.867 32.9169 101.921 32.9541 101.954C32.9913 101.998 33.0285 102.042 33.0905 102.064C33.1277 102.074 33.1649 102.096 33.2021 102.107C33.2641 102.129 33.3261 102.129 33.4005 102.118C33.4501 102.118 33.4873 102.107 33.5245 102.085C33.5865 102.064 33.6361 102.042 33.6857 101.998C33.7725 101.91 33.8345 101.812 33.8345 101.692C33.8345 101.582 33.7973 101.473 33.7725 101.364C33.7601 101.331 33.7601 101.287 33.7477 101.254C33.7353 101.221 33.7229 101.178 33.7105 101.145C33.6981 101.112 33.6857 101.09 33.6733 101.057C33.6485 101.014 33.6113 100.981 33.5617 100.948C33.5369 100.926 33.4997 100.904 33.4625 100.904C33.4129 100.882 33.3509 100.871 33.3013 100.871C33.2641 100.871 33.2269 100.882 33.1897 100.882C33.1525 100.893 33.1277 100.904 33.0905 100.915C33.0409 100.937 33.0037 100.97 32.9665 101.014C32.9169 101.068 32.8921 101.112 32.8797 101.156Z" fill="#00276F"/>
<path d="M32.4333 100.084C32.4333 100.084 33.2145 99.57 34.4669 100.226" stroke="#00276F" stroke-width="0.5" stroke-miterlimit="10" stroke-linecap="round" stroke-linejoin="round"/>
<path d="M27.5604 101.156C27.548 101.189 27.5232 101.221 27.5232 101.265C27.5108 101.298 27.5108 101.342 27.4984 101.375C27.4736 101.484 27.4364 101.593 27.4364 101.703C27.4364 101.757 27.4488 101.812 27.4736 101.867C27.4984 101.921 27.5232 101.965 27.5728 102.009C27.61 102.031 27.6348 102.053 27.672 102.074C27.734 102.107 27.7836 102.118 27.858 102.129C27.8952 102.14 27.9448 102.14 27.982 102.129C28.044 102.129 28.1059 102.107 28.1679 102.074C28.2051 102.053 28.2299 102.031 28.2671 102.009C28.3291 101.954 28.3663 101.888 28.3911 101.823C28.4035 101.746 28.4159 101.681 28.4159 101.604C28.4159 101.56 28.4159 101.528 28.4159 101.484C28.4159 101.451 28.4159 101.407 28.4159 101.375C28.4159 101.309 28.3911 101.232 28.3787 101.167C28.3663 101.134 28.3539 101.112 28.3415 101.079C28.3167 101.035 28.2795 101.003 28.2299 100.97C28.2051 100.948 28.1679 100.926 28.1307 100.926C28.0811 100.904 28.0191 100.893 27.9696 100.893C27.9324 100.893 27.8952 100.904 27.858 100.904C27.8208 100.915 27.796 100.926 27.7588 100.937C27.7092 100.959 27.672 100.992 27.6348 101.035C27.61 101.068 27.5728 101.112 27.5604 101.156Z" fill="#00276F"/>
<path d="M28.825 100.084C28.825 100.084 28.0439 99.57 26.7915 100.226" stroke="#00276F" stroke-width="0.5" stroke-miterlimit="10" stroke-linecap="round" stroke-linejoin="round"/>
<path d="M29.1473 104.808H32.4333C32.4333 104.808 31.9745 106.307 30.7717 106.307C29.5813 106.307 29.1473 104.808 29.1473 104.808Z" fill="white"/>
<path d="M55.2998 163.899H144.987" stroke="#E6EFFC" stroke-width="3" stroke-miterlimit="10" stroke-linecap="round" stroke-linejoin="round"/>
<path d="M55.2998 173.599H144.987" stroke="#E6EFFC" stroke-width="3" stroke-miterlimit="10" stroke-linecap="round" stroke-linejoin="round"/>
<path d="M127.057 183.3H144.987" stroke="#E6EFFC" stroke-width="3" stroke-miterlimit="10" stroke-linecap="round" stroke-linejoin="round"/>
<path d="M55.2998 183.3H116.852" stroke="#E6EFFC" stroke-width="3" stroke-miterlimit="10" stroke-linecap="round" stroke-linejoin="round"/>
<path d="M55.2998 193H102.754" stroke="#E6EFFC" stroke-width="3" stroke-miterlimit="10" stroke-linecap="round" stroke-linejoin="round"/>
</svg>
